<svg width="52" height="51" viewBox="0 0 52 51" fill="none" xmlns="http://www.w3.org/2000/svg">
<path fill-rule="evenodd" clip-rule="evenodd" d="M28.0006 11.6667C28.0006 5.22334 33.2239 0 39.6673 0C46.1106 0 51.3339 5.22334 51.3339 11.6667C51.3339 18.11 46.1106 23.3333 39.6673 23.3333C33.2239 23.3333 28.0006 18.11 28.0006 11.6667ZM39.6673 3.5C38.0455 3.5 36.5341 3.97274 35.2634 4.78794L46.546 16.0705C47.3612 14.7998 47.8339 13.2885 47.8339 11.6667C47.8339 7.15634 44.1776 3.5 39.6673 3.5ZM31.5006 11.6667C31.5006 10.0449 31.9733 8.53349 32.7885 7.26281L44.0711 18.5454C42.8004 19.3606 41.2891 19.8333 39.6673 19.8333C35.1569 19.8333 31.5006 16.177 31.5006 11.6667Z" fill="#FF6E42"/>
<path fill-rule="evenodd" clip-rule="evenodd" d="M7.0006 24.591V14C7.0006 6.6556 13.5013 1.01572 21.1993 0.12337C22.0419 0.0256993 22.7867 0.627123 22.9454 1.46037C23.1471 2.51913 22.3314 3.49389 21.2632 3.63745C15.0315 4.47491 10.5006 9.0207 10.5006 14V24.591C10.5012 26.7791 9.85414 28.9184 8.64094 30.7393L3.5076 38.4347L3.5006 38.458L3.50294 38.4743L3.51227 38.4883L3.52627 38.4977L3.5426 38.5H43.1253L43.1416 38.4977L43.1556 38.4883L43.1649 38.4743L43.1673 38.4603C43.1674 38.452 43.165 38.4438 43.1603 38.437L38.999 32.1942C38.4634 31.3906 38.6803 30.3049 39.4837 29.7689C40.2874 29.2327 41.3736 29.4496 41.9097 30.2533L46.0723 36.4933C46.4279 37.0267 46.632 37.6467 46.663 38.287C46.6939 38.9273 46.5505 39.5641 46.248 40.1293C45.9455 40.6945 45.4953 41.167 44.9453 41.4965C44.3954 41.8259 43.7663 42 43.1253 42H31.5006C31.5006 43.0725 31.2894 44.1344 30.879 45.1252C30.4685 46.1161 29.867 47.0164 29.1086 47.7747C28.3503 48.5331 27.45 49.1346 26.4592 49.545C25.4684 49.9554 24.4064 50.1667 23.3339 50.1667C22.2615 50.1667 21.1995 49.9554 20.2087 49.545C19.2179 49.1346 18.3176 48.5331 17.5592 47.7747C16.8009 47.0164 16.1993 46.1161 15.7889 45.1252C15.3785 44.1344 15.1673 43.0725 15.1673 42H3.54494C2.90383 42.0005 2.27461 41.827 1.72436 41.4981C1.1741 41.1691 0.723463 40.6969 0.420487 40.1319C0.117512 39.5669 -0.0264364 38.9303 0.00399268 38.2899C0.0344217 37.6495 0.238087 37.0294 0.593271 36.4957L5.7266 28.798C6.5573 27.5522 7.00059 26.0884 7.0006 24.591ZM28.0006 42H18.6673C18.6673 43.2377 19.1589 44.4247 20.0341 45.2998C20.9093 46.175 22.0963 46.6667 23.3339 46.6667C24.5716 46.6667 25.7586 46.175 26.6338 45.2998C27.5089 44.4247 28.0006 43.2377 28.0006 42Z" fill="#FF6E42"/>
</svg>
