<svg width="45" height="29" viewBox="0 0 45 29" fill="none" xmlns="http://www.w3.org/2000/svg">
<path d="M44.8524 14.2126L37.2548 0.443481C37.0133 0.034314 36.5077 -0.11657 36.0914 0.0961664L32.6008 2.14532C32.1686 2.40152 32.018 2.96867 32.2631 3.41545L32.9615 4.86533C32.4685 5.21431 31.8675 5.36351 31.2743 5.28495C30.7228 5.20052 30.1782 5.07221 29.6454 4.90128C27.0856 4.19411 22.816 2.99582 18.6277 4.90128C17.8267 5.24524 17.0845 5.71836 16.4287 6.30344C16.0448 6.30344 15.2654 6.15966 14.4622 6.03972C13.6361 5.69826 12.8874 5.18418 12.2633 4.53014L12.7518 3.64325H12.7522C12.9973 3.19605 12.8468 2.62889 12.4146 2.37312L8.924 0.323968C8.71583 0.201096 8.4683 0.170999 8.23781 0.239961C8.00529 0.29931 7.80686 0.455618 7.6908 0.671275L0.116785 14.4521C-0.00251314 14.6665 -0.0317347 14.9219 0.0352213 15.1593C0.0928434 15.3988 0.244606 15.6027 0.45399 15.7223L3.94463 17.7714C4.07894 17.8513 4.23151 17.8926 4.38653 17.8914C4.46768 17.9031 4.55006 17.9031 4.63082 17.8914C4.86374 17.832 5.06176 17.6757 5.17782 17.4601L6.004 15.9742V15.9738C6.68897 16.9046 7.43113 17.7894 8.22613 18.6224L8.03987 18.8978C7.7684 19.2986 7.62232 19.7755 7.6211 20.2641C7.62192 21.0331 7.98103 21.7554 8.58688 22.2055C8.97076 22.4977 9.4362 22.6531 9.91345 22.6489H10.0064C9.97107 22.8872 9.97107 23.1296 10.0064 23.3678C10.1131 23.9864 10.4515 24.5373 10.9486 24.9017C11.3337 25.1913 11.7983 25.3468 12.2752 25.3451C12.5118 25.346 12.7471 25.3096 12.9731 25.2373C13.1046 25.9277 13.5238 26.5237 14.1195 26.8672C14.7156 27.2112 15.4282 27.2681 16.0681 27.0227C16.2008 27.579 16.523 28.068 16.9754 28.4007C17.3618 28.6862 17.8264 28.8374 18.302 28.832H18.6977C19.2994 28.733 19.8363 28.3869 20.1869 27.8737V27.8018C21.5086 28.5165 22.9657 28.9256 24.457 29C24.9772 28.9942 25.4925 28.8972 25.9811 28.7125C26.8101 28.4504 27.5072 27.8657 27.924 27.0825H28.3079C28.9596 27.0871 29.5967 26.8861 30.1348 26.5074C30.7572 26.0485 31.1959 25.3706 31.3679 24.602C32.0943 24.523 32.7659 24.1681 33.2529 23.6072C33.6165 23.183 33.89 22.6852 34.0555 22.1453C34.9682 22.0613 35.8081 21.5982 36.3823 20.8635C36.7475 20.2863 36.8692 19.5813 36.7199 18.91C36.6606 18.635 36.5588 18.3721 36.4172 18.1309C37.4791 17.6135 38.4169 16.8604 39.1632 15.9263L39.838 17.1245C39.9569 17.3402 40.1533 17.4994 40.385 17.568C40.4658 17.5797 40.5481 17.5797 40.6293 17.568C40.7835 17.5638 40.9348 17.5224 41.0712 17.448L44.5618 15.3989C44.7712 15.2764 44.9258 15.0741 44.9924 14.8359C45.0204 14.6173 44.9709 14.3962 44.8528 14.2127L44.8524 14.2126ZM5.45728 14.4521L4.29391 16.4775L1.25745 14.7877L8.61072 1.49794L11.6472 3.28346L5.45728 14.4521ZM10.8559 20.8993C10.4818 21.3996 9.79435 21.5149 9.28512 21.1626C8.78844 20.7798 8.67075 20.063 9.01771 19.5331L9.43647 18.9099L9.9717 18.143C10.3442 17.6239 11.0491 17.5023 11.5657 17.8676C12.0177 18.2086 12.1691 18.833 11.9264 19.3534L10.8559 20.8993ZM13.3689 23.3799L13.2176 23.5955C13.0768 23.9265 12.7984 24.1744 12.46 24.2701C12.1215 24.3658 11.7592 24.2989 11.4743 24.0883C11.189 23.8776 11.0113 23.5458 10.9906 23.1851C10.9699 22.824 11.1087 22.4729 11.368 22.2293L11.7867 21.642L12.7408 20.2641L13.9975 18.4427H13.9971C14.1586 18.1702 14.4187 17.975 14.7202 17.9006C15.0217 17.8267 15.3395 17.8793 15.6028 18.0473C15.8552 18.2245 16.024 18.5029 16.0683 18.8143C16.1149 19.121 16.0439 19.4349 15.8706 19.689L15.4519 20.3001L13.3689 23.3799ZM16.4521 25.0337L16.1729 25.4291C16.0301 25.7613 15.7481 26.0092 15.4068 26.102C15.0655 26.1952 14.7016 26.1237 14.4179 25.9076C14.1339 25.6915 13.9606 25.3542 13.9468 24.9906C13.9326 24.6274 14.0799 24.2772 14.3465 24.039L16.429 21.0193V21.0189C16.7192 20.6782 17.1708 20.5349 17.5969 20.649C18.0229 20.7631 18.3496 21.115 18.4417 21.558C18.5009 21.8656 18.4287 22.1841 18.2441 22.4332L17.5461 23.4517L16.4521 25.0337ZM20.3615 25.5009L19.6287 26.5433L19.5357 26.6871L19.2448 27.0946C18.8686 27.4929 18.2758 27.5727 17.8128 27.2873C17.3498 27.0018 17.1379 26.4259 17.3015 25.8963L17.3944 25.7404L18.4998 24.1468H18.5002C18.8776 23.6498 19.5646 23.5399 20.0706 23.8952C20.5746 24.2788 20.6931 25.0044 20.3384 25.5369L20.3615 25.5009ZM35.3703 20.2282C34.926 20.7013 34.3218 20.98 33.6831 21.0072L26.8071 16.5733C26.5372 16.3952 26.1781 16.4755 26.0044 16.753C25.9192 16.8871 25.8908 17.0514 25.9261 17.2073C25.961 17.3636 26.0568 17.4982 26.1907 17.5797L32.8923 21.9175V21.918C32.773 22.264 32.5867 22.5821 32.3453 22.8525C31.991 23.2383 31.4996 23.4589 30.9842 23.4635L24.9108 19.9645C24.6279 19.8023 24.2713 19.9068 24.1138 20.1981C23.9564 20.4894 24.0578 20.8568 24.3407 21.019L30.158 24.3621V24.3625C30.057 24.8469 29.7827 25.2745 29.3899 25.5608C28.8855 25.9022 28.2638 26.0067 27.6799 25.8483H27.6101C27.574 25.8128 27.535 25.7806 27.4936 25.7526L22.8396 23.3561V23.3557C22.5584 23.2354 22.2346 23.3587 22.097 23.6387C21.9595 23.9187 22.0552 24.2606 22.3162 24.4223L26.7722 26.7352C26.4926 27.1599 26.0831 27.4762 25.6088 27.6338C24.0088 27.9318 22.3576 27.63 20.9548 26.7829L21.3273 26.1961C21.6803 25.6812 21.8223 25.0442 21.7229 24.4223C21.6292 23.8919 21.365 23.4092 20.9722 23.0527C20.5794 22.6958 20.0815 22.4859 19.5589 22.4571C19.6636 22.096 19.6875 21.7148 19.6287 21.3424C19.5248 20.7256 19.1909 20.1751 18.6978 19.8086C18.2778 19.5005 17.7706 19.3442 17.2552 19.3655C17.2897 19.1348 17.2897 18.9008 17.2552 18.6705C17.142 18.057 16.8012 17.5137 16.3049 17.155C15.809 16.7969 15.1967 16.6518 14.5981 16.7513C14 16.8508 13.4631 17.1868 13.1016 17.6875L12.9969 17.8313V17.8317C12.837 17.4585 12.5793 17.1387 12.2523 16.9089C11.7531 16.5499 11.1376 16.4065 10.5374 16.5097C9.93722 16.613 9.39998 16.954 9.04086 17.4601L8.94794 17.5801V17.5797C8.11405 16.6978 7.33694 15.7612 6.62078 14.7757L11.6935 5.59632C12.4386 6.35865 13.3475 6.92958 14.3466 7.26222L15.5099 7.42982C14.9033 8.23604 14.4748 9.16805 14.2532 10.1619C14.043 11.063 14.3031 12.0117 14.9398 12.6666C15.5464 13.2982 16.4229 13.569 17.2665 13.3855C18.1536 13.2004 18.951 12.7051 19.5239 11.9837L20.6872 10.39L22.3278 9.94657V9.94615C26.9137 12.0597 31.1561 14.8892 34.9048 18.3347H34.9746C35.0083 18.3761 35.0476 18.412 35.0911 18.4425C35.328 18.6223 35.49 18.8877 35.5447 19.1852C35.6263 19.543 35.5634 19.9191 35.3703 20.228L35.3703 20.2282ZM35.5217 17.2444C31.6878 13.7333 27.3414 10.8662 22.6424 8.748C22.5349 8.72418 22.4237 8.72418 22.3166 8.748C22.2395 8.73671 22.1612 8.73671 22.0837 8.748L20.2804 9.23951C20.0876 9.29635 19.9168 9.41338 19.7918 9.5747L18.6285 11.2285C18.2178 11.7296 17.657 12.0753 17.0345 12.2111C16.5703 12.3118 16.0882 12.163 15.7547 11.8157C15.4016 11.4471 15.2568 10.918 15.3708 10.4139C15.6277 9.25118 16.2294 8.20007 17.0925 7.40596C17.7183 6.83337 18.4296 6.3682 19.1985 6.02798C22.9915 4.31436 27.0286 5.44076 29.437 6.11199V6.11157C30.0335 6.30341 30.6446 6.44384 31.2639 6.53119C32.0807 6.62063 32.9024 6.41751 33.5906 5.9561L38.5007 14.8479V14.8474C37.7463 15.924 36.7087 16.7558 35.5105 17.2443L35.5217 17.2444ZM40.6874 16.3575L39.5939 14.3803L34.463 5.09306L33.3576 3.09195L36.3824 1.27059L43.7122 14.5721L40.6874 16.3575Z" fill="white"/>
</svg>
