<svg width="38" height="35" viewBox="0 0 38 35" fill="none" xmlns="http://www.w3.org/2000/svg">
<path d="M18.9126 1.00757C18.7265 1.0484 18.5956 1.21306 18.6001 1.40018V6.66594L11.6002 10.4829C11.4755 10.5539 11.399 10.6851 11.4004 10.8268V14.018L1.26272 17.5161C1.1009 17.5742 0.99515 17.7273 1.00017 17.8967V33.6074C1.00017 33.8241 1.1793 34 1.40028 34H36.5997C36.8207 34 36.9998 33.8241 36.9998 33.6074V17.8967C37.0048 17.7273 36.8991 17.5742 36.7373 17.5161L26.5996 14.018V10.8268C26.601 10.6851 26.5245 10.5539 26.3998 10.4829L19.3999 6.66594V4.98426C20.8725 5.74153 22.3778 6.0629 23.9746 5.27878C24.1094 5.21467 24.1962 5.08207 24.1998 4.93522V2.18591C24.2006 2.05002 24.13 1.92317 24.0131 1.85085C23.8959 1.77824 23.7492 1.77058 23.6247 1.82975C22.9202 2.17578 22.2389 2.18318 21.4998 2.00181C20.7606 1.82016 19.9747 1.43714 19.1747 1.04429C19.0941 1.0032 19.0015 0.990046 18.9122 1.00758L18.9126 1.00757ZM19.4003 1.97715C20.0231 2.27551 20.6388 2.60044 21.3001 2.76262C21.9781 2.92919 22.6899 2.88344 23.4002 2.67686V4.65276C22.0323 5.2314 20.8414 4.92455 19.4251 4.12509C19.4173 4.1166 19.409 4.10838 19.4003 4.10044L19.4003 1.97715ZM19.0002 7.35302L25.8 11.0599V33.2148H21.8001V26.145C21.8001 25.928 21.6209 25.7524 21.4002 25.7524H16.6001C16.5753 25.7499 16.5502 25.7499 16.5253 25.7524C16.3339 25.788 16.1969 25.9541 16.2003 26.145V33.2148H12.2003V11.0599L19.0002 7.35302ZM19.0002 10.4339C17.2376 10.4339 15.8002 11.8454 15.8002 13.5761C15.8002 15.3068 17.2376 16.7183 19.0002 16.7183C20.7627 16.7183 22.2002 15.3068 22.2002 13.5761C22.2002 11.8454 20.7627 10.4339 19.0002 10.4339ZM19.0002 11.2193C20.3305 11.2193 21.4003 12.2698 21.4003 13.5761C21.4003 14.8824 20.3305 15.9328 19.0002 15.9328C17.6698 15.9328 16.6001 14.8824 16.6001 13.5761C16.6001 12.2698 17.6698 11.2193 19.0002 11.2193ZM11.4003 14.8525V33.2144H1.80046V18.1784L11.4003 14.8525ZM26.6001 14.8525L36.1999 18.1788V33.2148H26.6001V14.8525ZM14.9253 18.6821C14.7341 18.718 14.5968 18.8838 14.6002 19.0748V23.0024C14.6002 23.2194 14.7793 23.3953 15.0003 23.3953H23.0002C23.2212 23.3953 23.4003 23.2194 23.4003 23.0024V19.0748C23.4003 18.858 23.2212 18.6821 23.0002 18.6821H15.0003C14.9755 18.6797 14.9504 18.6797 14.9253 18.6821ZM4.52541 19.4676C4.33401 19.5035 4.19701 19.6693 4.20036 19.8605V23.0024C4.20036 23.2194 4.37949 23.3953 4.60019 23.3953H8.60013C8.82111 23.3953 9.00024 23.2194 9.00024 23.0024V19.8605C9.00024 19.6435 8.82111 19.4676 8.60013 19.4676H4.60019C4.57536 19.4654 4.55025 19.4654 4.52541 19.4676ZM15.4002 19.4676H22.6001V22.6098H15.4002V19.4676ZM29.325 19.4676C29.1336 19.5035 28.9966 19.6693 29 19.8605V23.0024C29 23.2194 29.1791 23.3953 29.4001 23.3953H33.4C33.6207 23.3953 33.7998 23.2194 33.7998 23.0024V19.8605C33.7998 19.6435 33.6207 19.4676 33.4 19.4676H29.4001C29.375 19.4654 29.3499 19.4654 29.325 19.4676ZM5.00041 20.2531H8.20043V22.6098H5.00041V20.2531ZM29.8 20.2531H33V22.6098H29.8V20.2531ZM4.52541 25.752C4.33401 25.7876 4.19701 25.9536 4.20036 26.1446V29.2868C4.20036 29.5038 4.37949 29.6797 4.60019 29.6797H8.60013C8.82111 29.6797 9.00024 29.5038 9.00024 29.2868V26.1446C9.00024 25.9276 8.82111 25.752 8.60013 25.752H4.60019C4.57536 25.7495 4.55025 25.7495 4.52541 25.752ZM29.325 25.752C29.1336 25.7876 28.9966 25.9536 29 26.1446V29.2868C29 29.5038 29.1791 29.6797 29.4001 29.6797H33.4C33.6207 29.6797 33.7998 29.5038 33.7998 29.2868V26.1446C33.7998 25.9276 33.6207 25.752 33.4 25.752H29.4001C29.375 25.7495 29.3499 25.7495 29.325 25.752ZM5.00041 26.5374H8.20043V28.8939H5.00041V26.5374ZM17.0002 26.5374H21.0002V33.2144H17.0002V26.5374ZM29.8 26.5374H33V28.8939H29.8V26.5374Z" fill="white" stroke="white" stroke-width="0.5"/>
</svg>
