<svg width="725" height="789" viewBox="0 0 725 789" fill="none" xmlns="http://www.w3.org/2000/svg">
<path d="M164.75 126.88L197 145.5L164.75 164.12L164.75 126.88Z" stroke="#8F3AE2" stroke-width="4"/>
<path d="M569.25 617.373L596.932 633L569.25 648.627L569.25 617.373Z" stroke="#30B464" stroke-opacity="0.5" stroke-width="4"/>
<path d="M152 607.5C152 618.314 143.449 627 133 627C122.551 627 114 618.314 114 607.5C114 596.686 122.551 588 133 588C143.449 588 152 596.686 152 607.5Z" stroke="#FF2525" stroke-width="4"/>
<rect x="283.521" y="664.287" width="27.8543" height="3.57107" rx="1.78553" fill="#00B0F0" fill-opacity="0.5"/>
<rect x="299.234" y="652.146" width="27.8543" height="3.57107" rx="1.78553" transform="rotate(90 299.234 652.146)" fill="#00B0F0" fill-opacity="0.5"/>
<rect x="537.553" y="129.056" width="34.5394" height="4.42812" rx="2.21406" fill="#D40071" fill-opacity="0.5"/>
<rect x="557.037" y="114" width="34.5394" height="4.42812" rx="2.21406" transform="rotate(90 557.037 114)" fill="#D40071" fill-opacity="0.5"/>
<g filter="url(#filter0_d_2782_22189)">
<path d="M124 257.123L363.773 117L601 258.176V516.824L360.718 658L124 516.297V257.123Z" fill="white"/>
</g>
<defs>
<filter id="filter0_d_2782_22189" x="0" y="0" width="725" height="789" filterUnits="userSpaceOnUse" color-interpolation-filters="sRGB">
<feFlood flood-opacity="0" result="BackgroundImageFix"/>
<feColorMatrix in="SourceAlpha" type="matrix" values="0 0 0 0 0 0 0 0 0 0 0 0 0 0 0 0 0 0 127 0" result="hardAlpha"/>
<feOffset dy="7"/>
<feGaussianBlur stdDeviation="62"/>
<feComposite in2="hardAlpha" operator="out"/>
<feColorMatrix type="matrix" values="0 0 0 0 0 0 0 0 0 0 0 0 0 0 0 0 0 0 0.08 0"/>
<feBlend mode="normal" in2="BackgroundImageFix" result="effect1_dropShadow_2782_22189"/>
<feBlend mode="normal" in="SourceGraphic" in2="effect1_dropShadow_2782_22189" result="shape"/>
</filter>
</defs>
</svg>
