<svg width="41" height="30" viewBox="0 0 41 30" fill="none" xmlns="http://www.w3.org/2000/svg">
<path d="M20.4827 20.8283C20.4101 20.8283 20.3381 20.8169 20.2694 20.7937C18.811 20.3157 17.7275 19.8253 16.8588 19.2504C16.3423 18.9213 15.656 18.2632 15.1707 17.7747C14.5587 17.1618 14.0191 16.5055 13.759 16.0637H13.7593C13.6556 15.9071 13.6206 15.7149 13.6632 15.5319C13.7058 15.3489 13.8216 15.1914 13.9841 15.0968C14.1462 15.0019 14.3401 14.9781 14.5205 15.031C14.7006 15.0839 14.851 15.2087 14.9365 15.3759C15.0952 15.6474 15.5388 16.2126 16.1375 16.8123C16.7504 17.4316 17.2809 17.9013 17.5976 18.1038L17.6068 18.1096C18.3709 18.6164 19.3524 19.0574 20.6933 19.4975L20.693 19.4972C21.0109 19.6023 21.2056 19.9226 21.153 20.2531C21.1002 20.5836 20.8155 20.8272 20.4809 20.8283L20.4827 20.8283Z" fill="white"/>
<path d="M22.5792 29.8963H0.682769C0.305842 29.8963 0.000303234 29.591 9.91752e-06 29.2144V22.9288C-0.00175284 22.1809 0.231512 21.4514 0.6672 20.8433C1.10289 20.2351 1.71863 19.7794 2.42725 19.5407C3.84532 19.0809 4.86449 18.6267 5.64185 18.1111L5.6492 18.107C5.96825 17.9004 6.49147 17.4398 7.12165 16.8096C7.67279 16.2502 8.13991 15.6891 8.30943 15.3848H8.30972C8.49304 15.054 8.90993 14.9347 9.24044 15.118C9.57124 15.3013 9.69081 15.7179 9.50749 16.0487C9.17845 16.6492 8.40846 17.4545 8.09498 17.7762C7.37697 18.4942 6.80672 18.9913 6.39811 19.2569C5.5147 19.8427 4.39009 20.346 2.86094 20.8428C2.42437 20.99 2.04506 21.2705 1.77657 21.6448C1.50805 22.0191 1.3635 22.4683 1.36379 22.9289V28.53H22.5796C22.9471 28.5429 23.2386 28.8447 23.2386 29.2125C23.2386 29.5803 22.9471 29.882 22.5796 29.8947L22.5792 29.8963Z" fill="white"/>
<path d="M11.4946 22.0811C11.3365 22.0811 11.1796 22.0753 11.0224 22.0647C7.69504 21.8326 5.60474 19.2161 5.5175 19.1033C5.31508 18.8072 5.37648 18.4044 5.65822 18.182C5.93996 17.9599 6.34568 17.9934 6.58691 18.2593C6.60747 18.2848 8.41134 20.5191 11.1268 20.7015C12.9794 20.8267 14.8623 19.9809 16.7246 18.1902C16.8556 18.0648 17.031 17.9963 17.2123 18.0002C17.3939 18.004 17.566 18.0795 17.6918 18.2105C17.9532 18.4831 17.9441 18.9159 17.6715 19.1773C15.6684 21.1049 13.5914 22.0811 11.4946 22.0811L11.4946 22.0811Z" fill="white"/>
<path d="M17.6453 17.6643C16.5216 17.6643 15.2877 17.1996 13.9592 16.2742H13.9595C13.6501 16.0585 13.574 15.6331 13.7894 15.3237C14.005 15.0144 14.4307 14.9383 14.7401 15.1536C16.2628 16.2148 17.5534 16.5388 18.5767 16.1178C19.7759 15.6243 20.4992 14.1394 20.8453 13.0815C19.8029 12.9993 18.9295 12.5313 18.2394 11.6905C17.5969 10.9072 17.1339 9.81813 16.8254 8.36073C16.7878 8.18357 16.8222 7.99878 16.9209 7.84689C17.0196 7.6953 17.1747 7.58895 17.3519 7.55134C17.7206 7.47319 18.0831 7.70882 18.1613 8.07781C18.9116 11.6224 20.5116 11.8429 21.65 11.6973C21.8659 11.6702 22.0816 11.7478 22.2311 11.9061C22.3804 12.0645 22.4453 12.2845 22.4059 12.4984C22.3771 12.6538 21.677 16.3162 19.0958 17.3773C18.636 17.5674 18.1431 17.6652 17.6454 17.6644L17.6453 17.6643Z" fill="white"/>
<path d="M5.61014 17.664C5.11305 17.667 4.62038 17.5718 4.16003 17.3835C1.5829 16.3205 0.887815 12.6585 0.859611 12.503C0.820831 12.2892 0.886052 12.0697 1.03529 11.9119C1.18454 11.7539 1.40018 11.6766 1.61582 11.7034C3.40325 11.9272 4.41271 10.8437 4.99904 8.0839C5.07719 7.7152 5.43972 7.47928 5.80844 7.55743C6.17744 7.63558 6.41306 7.99812 6.33491 8.36684C6.08813 9.52762 5.38712 12.8395 2.42251 13.0868C2.7351 14.0584 3.41611 15.6057 4.68293 16.1254C5.70383 16.5441 6.99209 16.2192 8.51305 15.1598L8.51334 15.16C8.8227 14.9444 9.2481 15.0205 9.46376 15.3299C9.6794 15.6392 9.60331 16.0649 9.29396 16.2803C7.96636 17.2025 6.73234 17.664 5.61014 17.664Z" fill="white"/>
<path d="M11.564 17.2039C7.91806 17.2039 4.95203 13.5359 4.95203 9.02638C4.95203 4.51675 7.91836 0.849609 11.564 0.849609C15.2099 0.849609 18.1759 4.51757 18.1759 9.02638C18.1759 13.5352 15.2098 17.2039 11.564 17.2039ZM11.564 2.21466C8.67076 2.21466 6.31753 5.27064 6.31753 9.02668C6.31753 12.7827 8.67076 15.8387 11.564 15.8387C14.4572 15.8387 16.8104 12.7827 16.8104 9.02668C16.8104 5.27064 14.4572 2.21466 11.564 2.21466Z" fill="white"/>
<path d="M5.64143 9.70543C5.27361 9.70513 4.97218 9.4137 4.95955 9.04617C4.94691 8.67864 5.22777 8.36694 5.59442 8.34167C7.81543 8.1886 9.86549 7.17442 11.7013 5.32916H11.7016C11.969 5.0718 12.3929 5.07532 12.6561 5.33709C12.9194 5.59856 12.9255 6.0225 12.6696 6.29157C10.5935 8.37863 8.24492 9.52678 5.689 9.7036L5.64143 9.70543Z" fill="white"/>
<path d="M17.865 10.2545H17.86C14.3096 10.2307 11.721 6.34806 11.6132 6.1826C11.5139 6.03131 11.4786 5.84681 11.5151 5.66965C11.5518 5.4925 11.6572 5.33708 11.8085 5.23779C12.1235 5.03067 12.5462 5.11822 12.7533 5.43316C12.7762 5.46782 15.0566 8.87075 17.8691 8.88813C18.2366 8.90194 18.5271 9.20453 18.5263 9.57236C18.5251 9.94018 18.2328 10.241 17.8649 10.2528L17.865 10.2545Z" fill="white"/>
<path d="M32.2116 17.3499C31.8349 17.3493 31.5297 17.0438 31.5297 16.6672V13.9631C31.5232 13.7781 31.5923 13.5983 31.7209 13.4652C31.8496 13.3318 32.0268 13.2566 32.2119 13.2566C32.3972 13.2566 32.5744 13.3318 32.7031 13.4652C32.8317 13.5983 32.9008 13.7781 32.8943 13.9631V16.6695C32.8929 17.0455 32.5876 17.3499 32.2116 17.3499Z" fill="white"/>
<path d="M26.3109 17.3499C25.934 17.3499 25.6282 17.0441 25.6282 16.6672V13.9631C25.622 13.7781 25.6908 13.5983 25.8194 13.4652C25.9481 13.3318 26.1256 13.2566 26.3107 13.2566C26.4957 13.2566 26.6732 13.3318 26.8019 13.4652C26.9305 13.5983 26.9993 13.7781 26.9931 13.9631V16.6695C26.9917 17.0452 26.687 17.3493 26.3109 17.3499Z" fill="white"/>
<path d="M40.0488 29.8963H18.4629C18.2817 29.8966 18.108 29.8249 17.98 29.6968C17.8522 29.569 17.7802 29.3954 17.7802 29.2144V23.6765C17.7802 23.6307 17.7849 23.5848 17.794 23.5399C18.6166 19.5091 21.7736 18.5861 22.194 18.4808L24.9818 17.5463L24.982 17.5466C25.3393 17.4267 25.7259 17.6194 25.8458 17.9767C25.9653 18.3339 25.7726 18.7209 25.4154 18.8404L22.5997 19.7846C22.5767 19.7923 22.5532 19.7988 22.5297 19.8037C22.4237 19.8284 19.8472 20.4659 19.1447 23.7473V28.5316H39.3678V23.7884C38.6571 20.466 36.0157 19.8079 35.9892 19.802C35.9627 19.7961 35.949 19.7914 35.9293 19.7847L33.1054 18.841V18.8413C32.7523 18.7182 32.5637 18.3342 32.6823 17.9796C32.801 17.6251 33.183 17.432 33.5388 17.5466L36.3356 18.4821C36.7314 18.5866 39.891 19.5367 40.7169 23.5822V23.5819C40.726 23.6268 40.7307 23.6726 40.731 23.7185V29.2143C40.7304 29.5907 40.4254 29.8957 40.0488 29.8963Z" fill="white"/>
<path d="M29.2496 15.89C27.2187 15.89 25.4098 14.5844 24.4959 12.5132C24.1298 12.4762 23.777 12.2491 23.4955 11.8593C23.2164 11.4483 23.0278 10.9826 22.942 10.4932C22.7693 9.58832 22.9068 8.80449 23.2784 8.34797C23.0554 7.12461 22.8991 5.71564 23.16 4.27433C23.4579 2.62912 24.9057 1.01445 26.6816 0.345541C28.3268 -0.274644 30.0246 -0.054303 31.5038 0.960731C32.5262 0.537091 33.2651 0.762426 33.7248 1.05034C35.598 2.22902 35.5502 6.17195 35.491 7.35236H35.4907C35.4599 7.78922 35.3938 8.22283 35.2924 8.64882C35.5195 9.11946 35.5754 9.77816 35.4387 10.4932C35.353 10.9826 35.1643 11.4483 34.8852 11.8593C34.6385 12.2007 34.3364 12.4178 34.0191 12.4909C33.1075 14.5724 31.2837 15.89 29.2495 15.89L29.2496 15.89ZM24.9046 10.9964C24.9504 10.9964 24.9956 11.0008 25.0403 11.0096C25.2803 11.0581 25.4757 11.2314 25.5529 11.4638C26.1699 13.3229 27.6209 14.5248 29.2496 14.5248C30.8487 14.5248 32.2933 13.3549 32.9217 11.5446V11.5443C33.0392 11.2085 33.3944 11.019 33.7387 11.1083C33.8424 10.9826 34.0078 10.697 34.0947 10.2364C34.2067 9.65319 34.0947 9.28127 34.043 9.21223C33.8994 9.04595 33.845 8.82032 33.8973 8.60674C34.0113 8.17311 34.0874 7.73009 34.1244 7.2832C34.2496 4.79159 33.7848 2.7031 32.9942 2.20536C32.8882 2.13867 32.5747 1.94125 31.8622 2.29673V2.29643C31.8182 2.33227 31.7694 2.36195 31.7174 2.38457C31.4847 2.48886 31.2136 2.45449 31.0141 2.29585C29.5193 1.10543 28.098 1.27232 27.1661 1.62366C25.8376 2.12368 24.7197 3.34114 24.5067 4.51832C24.26 5.90263 24.4638 7.30521 24.6992 8.49382L24.6989 8.49411C24.7606 8.80259 24.6028 9.11341 24.3172 9.24591C24.2629 9.3643 24.1865 9.71655 24.2861 10.233C24.3337 10.5292 24.4439 10.8118 24.6093 11.0621C24.7027 11.0177 24.8046 10.9954 24.9081 10.9963L24.9046 10.9964Z" fill="white"/>
<path d="M32.6417 22.4145C32.54 22.4145 32.4392 22.3918 32.3473 22.3478L28.9664 20.7314C28.7745 20.6397 28.6365 20.464 28.593 20.256C28.5492 20.048 28.6047 19.8315 28.7434 19.6702L31.7097 16.2217V16.222C31.8464 16.0642 32.0476 15.9779 32.2559 15.9873C32.4645 15.9964 32.6569 16.1007 32.7791 16.2696L33.8749 17.8005C33.9836 17.953 34.0253 18.143 33.9901 18.3269L33.3082 21.8641H33.3079C33.2462 22.1852 32.9654 22.4173 32.6384 22.4176L32.6417 22.4145ZM30.3598 19.8858L32.1384 20.7355L32.5972 18.3573L32.1777 17.7715L30.3598 19.8858Z" fill="white"/>
<path d="M25.8774 22.4145C25.5504 22.4142 25.2695 22.1822 25.2078 21.861L24.5259 18.3239C24.4907 18.14 24.5321 17.9496 24.6411 17.7974L25.7393 16.2665C25.8612 16.097 26.054 15.993 26.2622 15.9836C26.4708 15.9742 26.6721 16.0609 26.8087 16.2189L29.7759 19.6674L29.7756 19.6671C29.9143 19.8284 29.9698 20.0449 29.9263 20.2529C29.8826 20.4609 29.7445 20.6366 29.5526 20.7283L26.1718 22.3447C26.0801 22.3899 25.9796 22.4137 25.8774 22.4146L25.8774 22.4145ZM25.9217 18.3568L26.3806 20.735L28.1619 19.8859L26.343 17.7719L25.9217 18.3568Z" fill="white"/>
<path d="M34.775 8.36888C34.7301 8.36888 34.6851 8.36447 34.6408 8.35566C32.7053 7.97403 31.6021 6.66698 31.0048 5.57201C29.0694 7.95758 23.9863 7.6796 23.7313 7.66373H23.7315C23.3552 7.64111 23.0685 7.31765 23.0911 6.94131C23.1137 6.56468 23.4375 6.27794 23.8138 6.30085C23.8755 6.30497 29.9975 6.59523 30.3576 3.72027C30.4002 3.39094 30.6735 3.14004 31.0051 3.12565C31.3368 3.11125 31.6309 3.33747 31.7017 3.66181C31.7273 3.77609 32.3598 6.513 34.9058 7.01803C35.2492 7.08648 35.4851 7.40406 35.4513 7.75279C35.4176 8.10122 35.1252 8.36771 34.775 8.36888Z" fill="white"/>
</svg>
