<svg width="35" height="35" viewBox="0 0 35 35" fill="none" xmlns="http://www.w3.org/2000/svg">
<path d="M29.746 7.49586H29.1117C30.0879 6.6968 30.6562 5.50328 30.6608 4.24156C30.6655 2.97983 30.1062 1.78212 29.1359 0.975804C28.1655 0.169424 26.8857 -0.161275 25.6462 0.0743758C24.7838 0.22519 23.9917 0.645844 23.3833 1.27547C22.7751 1.90508 22.3824 2.71146 22.2611 3.57847C22.025 5.06045 22.5964 6.55608 23.7609 7.503H23.6208C21.9006 7.503 20.3106 8.41888 19.4475 9.90693L18.4908 11.5644L16.0906 10.11C15.5091 9.76956 14.8179 9.66934 14.1635 9.83017C13.5095 9.99125 12.9436 10.4007 12.5865 10.9721C12.2235 11.5578 12.1104 12.2644 12.2724 12.9341C12.4345 13.6038 12.8581 14.1807 13.4484 14.5356L17.7549 17.1637C18.3623 17.5218 19.077 17.653 19.7719 17.5335C20.4668 17.4142 21.0969 17.0522 21.5498 16.5121V20.7905C21.5498 21.2745 21.9421 21.6665 22.4259 21.6665C22.9098 21.6665 23.3019 21.2745 23.3019 20.7905V13.9819C23.3021 13.6079 23.0648 13.2753 22.7113 13.1536C22.3577 13.0316 21.9658 13.1477 21.7356 13.4425L20.2324 15.3661C20.05 15.5981 19.7897 15.7562 19.4998 15.811C19.2099 15.8657 18.9098 15.8134 18.6556 15.6641L14.3524 13.0184C13.9597 12.7872 13.8286 12.2812 14.0599 11.8884C14.2911 11.4954 14.797 11.3643 15.1899 11.5956L18.3434 13.5229H18.3437C18.5453 13.6461 18.7885 13.6823 19.0173 13.6236C19.2464 13.5649 19.4419 13.4161 19.5595 13.211L20.961 10.7792H20.9612C21.5083 9.8333 22.5175 9.24987 23.6103 9.24787H24.1921C24.6577 9.24811 25.1006 9.04621 25.4061 8.69473C25.7116 8.34349 25.8498 7.8769 25.785 7.41568C25.7202 6.95444 25.4587 6.54403 25.0681 6.29061C24.6682 6.03128 24.3526 5.66144 24.1598 5.22587C23.9669 4.79006 23.9051 4.30779 23.9816 3.83774C24.0532 3.33398 24.282 2.86567 24.6359 2.49999C24.9896 2.13433 25.4499 1.8899 25.9509 1.80168C26.7067 1.65576 27.4872 1.86962 28.0628 2.38048C28.6384 2.89133 28.9434 3.6412 28.888 4.40872C28.8328 5.1765 28.4231 5.87456 27.7803 6.29743C27.3911 6.55237 27.1313 6.96327 27.0677 7.424C27.0044 7.88474 27.1438 8.35039 27.4495 8.70086C27.7556 9.05113 28.198 9.25205 28.6632 9.25156H29.7388C30.5853 9.25229 31.3968 9.58911 31.9952 10.1875C32.5938 10.7861 32.9303 11.5973 32.9313 12.4438V19.1717C32.9313 19.6168 32.5703 19.9775 32.1252 19.9775C31.6801 19.9775 31.3193 19.6168 31.3193 19.1717V13.9155C31.3193 13.4318 30.927 13.0395 30.4433 13.0395C29.9596 13.0395 29.5673 13.4318 29.5673 13.9155V19.1717C29.5673 20.0855 30.0549 20.9301 30.8463 21.3869C31.6378 21.8439 32.6128 21.8439 33.4043 21.3869C34.1957 20.93 34.6833 20.0855 34.6833 19.1717V12.44C34.6823 11.1304 34.162 9.87429 33.2366 8.94745C32.3109 8.02062 31.0558 7.4988 29.746 7.49586Z" fill="white"/>
<path d="M0.876655 34.232C1.10886 34.232 1.33177 34.1396 1.49603 33.9753C1.66028 33.8111 1.75268 33.5884 1.75268 33.356V32.382C1.75366 31.7919 1.9883 31.2266 2.40532 30.8096C2.82255 30.3923 3.3879 30.1577 3.97772 30.1567C4.44799 30.1557 4.89479 29.9518 5.20402 29.5977C5.51322 29.2435 5.65475 28.7732 5.59242 28.3071C5.53009 27.8412 5.26978 27.4247 4.87846 27.1641C4.26079 26.7491 3.88924 26.0547 3.88655 25.3107C3.89926 24.7319 4.13073 24.1792 4.53449 23.7644C4.93828 23.3496 5.48435 23.1033 6.06265 23.0749C6.71579 23.0543 7.3454 23.3195 7.78686 23.8013C8.22829 24.283 8.43774 24.9335 8.36028 25.5822C8.2828 26.2311 7.92618 26.8139 7.38383 27.1783C6.99397 27.4396 6.73563 27.8561 6.6745 28.3212C6.61315 28.7864 6.75516 29.2557 7.06387 29.6089C7.37258 29.9623 7.81863 30.1657 8.28774 30.1671C8.87779 30.1681 9.44316 30.4028 9.86014 30.82C10.2774 31.237 10.512 31.8024 10.513 32.3924V33.3664C10.513 33.8502 10.9051 34.2425 11.3891 34.2425C11.8728 34.2425 12.2651 33.8502 12.2651 33.3664V32.3819C12.2661 31.7919 12.5007 31.2265 12.9177 30.8095C13.335 30.3923 13.9003 30.1576 14.4901 30.1566C14.9604 30.1557 15.4072 29.9518 15.7164 29.5976C16.0256 29.2435 16.1671 28.7732 16.1048 28.3071C16.0425 27.8412 15.7822 27.4247 15.3909 27.1641C14.7739 26.7488 14.4036 26.0542 14.4026 25.3106C14.4151 24.7318 14.6468 24.1792 15.0506 23.7644C15.4543 23.3496 16.0004 23.1032 16.5785 23.0748C17.2316 23.0543 17.8612 23.3195 18.3029 23.8012C18.7444 24.283 18.9536 24.9334 18.8761 25.5821C18.7989 26.2311 18.4423 26.8138 17.8997 27.1782C17.5101 27.4395 17.2517 27.856 17.1903 28.3212C17.1292 28.7863 17.271 29.2557 17.5797 29.6088C17.8887 29.9623 18.3345 30.1656 18.8038 30.1671C19.3936 30.1681 19.9589 30.4027 20.3762 30.82C20.7932 31.237 21.0278 31.8023 21.0288 32.3924V33.3664C21.0288 33.8501 21.4211 34.2424 21.9048 34.2424C22.3888 34.2424 22.7809 33.8501 22.7809 33.3664V32.3819C22.7818 31.7918 23.0165 31.2265 23.4338 30.8095C23.8507 30.3922 24.4161 30.1576 25.0059 30.1566C25.4762 30.1556 25.923 29.9518 26.2322 29.5976C26.5417 29.2434 26.6832 28.7731 26.6206 28.307C26.5583 27.8411 26.298 27.4246 25.9066 27.1641C25.2885 26.7495 24.917 26.0548 24.915 25.3106C24.9274 24.7318 25.1592 24.1791 25.5629 23.7643C25.9667 23.3495 26.5128 23.1032 27.0908 23.0748C27.744 23.0542 28.3736 23.3194 28.8153 23.8012C29.2567 24.2829 29.4659 24.9334 29.3885 25.5821C29.3112 26.231 28.9546 26.8138 28.412 27.1782C28.0224 27.4395 27.7641 27.856 27.7027 28.3212C27.6416 28.7863 27.7834 29.2556 28.0921 29.6088C28.401 29.9622 28.8468 30.1656 29.3161 30.1671C29.9059 30.168 30.4713 30.4027 30.8885 30.8199C31.3055 31.2369 31.5402 31.8023 31.5412 32.3923V33.3664C31.5412 33.8501 31.9335 34.2424 32.4172 34.2424C32.9011 34.2424 33.2932 33.8501 33.2932 33.3664V32.3818C33.292 31.3872 32.9187 30.4291 32.247 29.6958C31.5753 28.9625 30.6536 28.5069 29.663 28.4187C30.5295 27.7233 31.0677 26.6989 31.1486 25.591C31.2295 24.483 30.8457 23.3914 30.0892 22.5777C29.3327 21.764 28.2719 21.3018 27.161 21.3018C26.0501 21.3018 24.9893 21.764 24.2327 22.5777C23.4762 23.3914 23.0925 24.483 23.1734 25.591C23.2543 26.6989 23.7925 27.7233 24.659 28.4187C23.5762 28.5135 22.5797 29.0481 21.9014 29.8972C21.2238 29.0488 20.2288 28.5145 19.1472 28.4187C20.0122 27.7236 20.5492 26.7001 20.6294 25.5934C20.7096 24.4867 20.3261 23.3965 19.5703 22.584C18.8145 21.7713 17.7549 21.3098 16.6452 21.3098C15.5356 21.3098 14.476 21.7713 13.7202 22.584C12.9644 23.3965 12.5807 24.4866 12.6611 25.5934C12.7413 26.7002 13.2783 27.7236 14.1433 28.4187C13.0617 28.5145 12.0666 29.0488 11.3891 29.8972C10.7116 29.0488 9.71653 28.5145 8.63489 28.4187C9.4999 27.7236 10.0369 26.7001 10.1171 25.5934C10.1973 24.4867 9.81378 23.3965 9.058 22.584C8.30225 21.7713 7.24263 21.3098 6.13296 21.3098C5.02329 21.3098 3.96368 21.7713 3.20792 22.584C2.45216 23.3965 2.0684 24.4866 2.1488 25.5934C2.22897 26.7002 2.76598 27.7236 3.63104 28.4187C2.64038 28.5069 1.71868 28.9625 1.04695 29.6958C0.375231 30.4291 0.00204492 31.3872 0.000793457 32.3818V33.3558C0.000793457 33.5883 0.0929449 33.811 0.257443 33.9752C0.421698 34.1395 0.644371 34.2319 0.876817 34.2319L0.876655 34.232Z" fill="white"/>
<path d="M2.85584 1.75644H20.7267H20.7265C21.2104 1.75644 21.6025 1.36414 21.6025 0.880418C21.6025 0.396697 21.2104 0.00439453 20.7265 0.00439453H2.85559H2.85584C2.09933 0.00537224 1.37386 0.306016 0.838605 0.840559C0.303355 1.3751 0.00168947 2.10009 0 2.8566V16.6383C0.000977705 17.3956 0.30211 18.1213 0.837416 18.6568C1.37271 19.1921 2.09864 19.4932 2.8559 19.4942H15.5163C16 19.4942 16.3923 19.1019 16.3923 18.6182C16.3923 18.1342 16 17.7422 15.5163 17.7422H2.8559C2.56308 17.7422 2.28223 17.6258 2.07518 17.4188C1.86839 17.2118 1.75204 16.9312 1.75204 16.6383V2.8566C1.75302 2.56451 1.86961 2.28465 2.07664 2.07857C2.28343 1.87227 2.56351 1.75644 2.85584 1.75644Z" fill="white"/>
</svg>
