<svg width="52" height="52" viewBox="0 0 52 52" fill="none" xmlns="http://www.w3.org/2000/svg">
<path fill-rule="evenodd" clip-rule="evenodd" d="M43.9735 0.967398C43.7219 0.464259 43.2438 0.112725 42.6885 0.0226182C42.1333 -0.0674886 41.5686 0.114818 41.1708 0.512584L33.9958 7.68758C33.6676 8.01577 33.4832 8.46089 33.4832 8.92502V14.9885C33.4832 15.1312 33.4832 15.2026 33.4671 15.2697C33.4528 15.3292 33.4293 15.3861 33.3973 15.4383C33.3612 15.4972 33.3107 15.5476 33.2099 15.6485L26.1792 22.6791C25.4957 23.3625 25.4957 24.4706 26.1791 25.154C26.8626 25.8374 27.9706 25.8374 28.654 25.154L35.6847 18.1234C35.7856 18.0225 35.8361 17.9721 35.8949 17.936C35.9471 17.904 36.004 17.8804 36.0635 17.8661C36.1307 17.85 36.202 17.85 36.3447 17.85H42.4082C42.8724 17.85 43.3175 17.6656 43.6457 17.3375L50.8207 10.1625C51.2184 9.76469 51.4007 9.19996 51.3106 8.6447C51.2205 8.08944 50.869 7.61134 50.3659 7.35977L47.2173 5.78551C46.8044 5.57902 46.5979 5.47577 46.4189 5.33784C46.2601 5.21545 46.1178 5.07311 45.9954 4.91433C45.8575 4.73539 45.7542 4.5289 45.5477 4.11592L43.9735 0.967398ZM41.9567 14.0767C41.8558 14.1775 41.8054 14.228 41.7465 14.2641C41.6943 14.296 41.6374 14.3196 41.5779 14.3339C41.5108 14.35 41.4394 14.35 41.2968 14.35H37.9166C37.5899 14.35 37.4265 14.35 37.3017 14.2864C37.192 14.2305 37.1027 14.1413 37.0468 14.0315C36.9832 13.9067 36.9832 13.7434 36.9832 13.4167V10.0365C36.9832 9.89382 36.9832 9.82248 36.9993 9.75534C37.0136 9.69582 37.0372 9.63892 37.0692 9.58673C37.1053 9.52786 37.1557 9.47742 37.2566 9.37653L41.0132 5.61996C41.3223 5.31082 41.4769 5.15625 41.6431 5.1195C41.7885 5.08733 41.9408 5.11204 42.0686 5.18856C42.2146 5.27597 42.3124 5.47149 42.5079 5.86253L43.2346 7.31598C43.404 7.65465 43.6786 7.92927 44.0173 8.0986L45.4707 8.82533C45.8618 9.02085 46.0573 9.11861 46.1447 9.26464C46.2212 9.39247 46.2459 9.54473 46.2137 9.6902C46.177 9.85637 46.0224 10.0109 45.7133 10.3201L41.9567 14.0767Z" fill="white"/>
<path d="M3.5 25.6667C3.5 13.4244 13.4244 3.50002 25.6667 3.50002C26.6332 3.50002 27.4167 2.71652 27.4167 1.75002C27.4167 0.783523 26.6332 2.11307e-05 25.6667 2.11307e-05C11.4914 2.11307e-05 0 11.4914 0 25.6667C0 39.842 11.4914 51.3334 25.6667 51.3334C39.842 51.3334 51.3333 39.842 51.3333 25.6667C51.3333 24.7002 50.5498 23.9167 49.5833 23.9167C48.6168 23.9167 47.8333 24.7002 47.8333 25.6667C47.8333 37.909 37.909 47.8334 25.6667 47.8334C13.4244 47.8334 3.5 37.909 3.5 25.6667Z" fill="white"/>
<path d="M15.1667 25.6667C15.1667 19.8677 19.8677 15.1667 25.6667 15.1667C26.6332 15.1667 27.4167 14.3832 27.4167 13.4167C27.4167 12.4502 26.6332 11.6667 25.6667 11.6667C17.9347 11.6667 11.6667 17.9347 11.6667 25.6667C11.6667 33.3987 17.9347 39.6667 25.6667 39.6667C33.3987 39.6667 39.6667 33.3987 39.6667 25.6667C39.6667 24.7002 38.8832 23.9167 37.9167 23.9167C36.9502 23.9167 36.1667 24.7002 36.1667 25.6667C36.1667 31.4657 31.4657 36.1667 25.6667 36.1667C19.8677 36.1667 15.1667 31.4657 15.1667 25.6667Z" fill="white"/>
</svg>
