<svg width="47" height="47" viewBox="0 0 47 47" fill="none" xmlns="http://www.w3.org/2000/svg">
<path fill-rule="evenodd" clip-rule="evenodd" d="M3.5 1.75C3.5 0.783502 2.7165 0 1.75 0C0.783502 0 0 0.783502 0 1.75V44.9167C0 45.8832 0.783502 46.6667 1.75 46.6667H44.9167C45.8832 46.6667 46.6667 45.8832 46.6667 44.9167C46.6667 43.9502 45.8832 43.1667 44.9167 43.1667H42V20.4167C42 19.4502 41.2165 18.6667 40.25 18.6667H31.5V6.41667C31.5 5.45017 30.7165 4.66667 29.75 4.66667H19.25C18.2835 4.66667 17.5 5.45017 17.5 6.41667V28H8.75C7.7835 28 7 28.7835 7 29.75V43.1667H3.5V1.75ZM10.5 43.1667H17.5V31.5H10.5V43.1667ZM21 43.1667H28V8.16667H21V43.1667ZM31.5 43.1667H38.5V22.1667H31.5V43.1667Z" fill="white"/>
</svg>
