<svg width="56" height="56" viewBox="0 0 56 56" fill="none" xmlns="http://www.w3.org/2000/svg">
<path d="M21.2587 24.9777L19.0972 27.1392C19.1149 25.9277 19.1697 24.742 19.2585 23.5871C19.3627 22.2324 19.5137 20.9201 19.7062 19.6585C20.2924 15.8182 21.2641 12.448 22.4764 9.78098C24.1847 6.02263 25.9259 4.49728 27.1288 4.0098C27.3873 3.90501 27.621 3.84818 27.8242 3.82742C27.8856 3.82114 27.9443 3.81817 28 3.81817C29.0966 3.81817 31.337 4.97034 33.5236 9.78097C34.3033 11.4963 34.9835 13.5026 35.5257 15.7377C34.2573 15.5772 32.9526 15.4563 31.6185 15.3781C30.4339 15.3086 29.2262 15.2728 28 15.2728H26.8604C24.0543 15.3727 24.0081 17.0049 24.0114 17.1833L24.012 17.1991C24.012 17.1991 24.0793 19.0909 26.21 19.0909H28C29.5116 19.0909 30.9858 19.1488 32.4129 19.2585C33.7528 19.3616 35.0512 19.5104 36.3001 19.6999C36.4896 20.9488 36.6384 22.2472 36.7415 23.5871C36.8512 25.0142 36.9091 26.4883 36.9091 28C36.9091 35.3152 35.5536 41.753 33.5236 46.219C32.7036 48.023 31.8761 49.3125 31.1041 50.2197C29.8175 51.7317 28.6854 52.1818 28 52.1818C27.9658 52.1818 27.9304 52.1807 27.8939 52.1784C27.6711 52.1641 27.4079 52.1051 27.1128 51.9837C25.9105 51.4892 24.1772 49.9608 22.4764 46.219L22.0752 45.3093C21.7428 44.5046 21.0527 44.1331 20.3541 44.107C19.7574 44.0847 19.1545 44.3144 18.7628 44.7413C18.39 45.1476 18.1198 45.7552 18.457 46.7578C20.1759 50.8516 22.8105 54.7849 26.4044 55.7815C26.9177 55.9238 27.4497 56 27.9999 56C30.0514 56 31.9896 54.9322 33.7057 53.0355C37.8698 48.4333 40.7273 38.9508 40.7273 28C40.7273 26.7738 40.6914 25.5661 40.622 24.3815C40.5437 23.0474 40.4228 21.7428 40.2623 20.4744C41.6779 20.8177 43.0017 21.2164 44.2179 21.6608C44.922 21.918 45.5901 22.1905 46.219 22.4764C49.9608 24.1772 51.4892 25.9105 51.9837 27.1128C52.1051 27.4079 52.1641 27.6711 52.1784 27.8939C52.1807 27.9304 52.1818 27.9658 52.1818 28C52.1818 28.6854 51.7317 29.8175 50.2197 31.1041C49.3125 31.8761 48.023 32.7036 46.219 33.5236C45.59 33.8095 44.8935 34.125 44.1875 34.4034C43.9027 34.5414 43.6683 34.697 43.4795 34.8639C43.0181 35.272 42.8296 35.7482 42.8457 36.2023C42.8836 37.2688 44.0503 38.2135 45.4622 37.8685L46.0112 37.748C48.5816 37.0052 51.2725 35.5182 53.2129 33.6186C54.8851 31.9815 56 30.0378 56 27.9999C56 27.4497 55.9231 26.9075 55.7741 26.3757C54.7306 22.6524 50.148 19.4315 43.6077 17.4319C42.3382 17.0437 40.9948 16.7016 39.5893 16.4107C37.586 6.73004 33.1502 0 28 0C27.5448 0 27.0952 0.0525728 26.6523 0.155111C26.3866 0.216639 26.1233 0.296156 25.8627 0.393098C20.9983 2.20268 17.0722 10.0839 15.751 20.3701C15.5839 21.6713 15.4585 23.0108 15.3781 24.3815C15.3271 25.2506 15.2942 26.1322 15.2803 27.0244L13.2336 24.9777C12.5502 24.2942 11.4421 24.2942 10.7587 24.9777C10.0753 25.6611 10.0753 26.7691 10.7587 27.4525L16.0087 32.7025C16.6921 33.3859 17.8002 33.3859 18.4836 32.7025L23.7336 27.4525C24.417 26.7691 24.417 25.6611 23.7336 24.9777C23.0502 24.2942 21.9421 24.2942 21.2587 24.9777Z" fill="white"/>
<path d="M10.3898 18.1076C14.1275 17.086 14.2646 20.9483 11.7821 21.6608C11.078 21.918 10.4099 22.1906 9.78097 22.4764C8.01498 23.2792 6.74201 24.0891 5.83809 24.8471C4.81832 25.7022 4.26823 26.4911 4.0098 27.1288L3.82742 27.8242C3.82114 27.8856 3.81817 27.9443 3.81817 28C3.81817 29.0966 4.97034 31.337 9.78097 33.5236C10.4099 33.8095 11.078 34.082 11.7821 34.3393C13.008 34.7871 14.3431 35.1886 15.7714 35.5338C17.0015 35.8311 18.3006 36.0865 19.6585 36.2938C20.9201 36.4864 22.2324 36.6373 23.5871 36.7415C24.8031 36.835 26.0532 36.8909 27.3316 36.9054L25.0873 34.661C24.4039 33.9776 24.4039 32.8696 25.0873 32.1862C25.7707 31.5028 26.8788 31.5028 27.5622 32.1862L32.8122 37.4362C33.4956 38.1196 33.4956 39.2276 32.8122 39.911L27.5622 45.161C26.8788 45.8445 25.7707 45.8445 25.0873 45.161C24.4039 44.4776 24.4039 43.3696 25.0873 42.6862L27.0534 40.7201C26.1513 40.7065 25.26 40.6735 24.3815 40.622C23.0109 40.5416 21.6713 40.4161 20.3702 40.249C19.0381 40.0779 17.7464 39.8632 16.503 39.6083C15.064 39.3134 13.6896 38.9648 12.3923 38.5681C4.91764 36.2828 0 32.4025 0 28C0 27.5873 0.0438294 27.1821 0.127725 26.7849C0.155693 26.6526 0.188113 26.5211 0.224845 26.3906C1.25332 22.7352 5.66278 19.8052 10.3898 18.1076Z" fill="white"/>
</svg>
