<svg width="52" height="52" viewBox="0 0 52 52" fill="none" xmlns="http://www.w3.org/2000/svg">
<path fill-rule="evenodd" clip-rule="evenodd" d="M25.6667 51.3333C18.5834 51.3333 12.1703 48.4641 7.52627 43.8244L7.51759 43.8158L7.50898 43.8071C2.86929 39.163 0 32.7499 0 25.6667C0 11.4914 11.4914 0 25.6667 0C39.842 0 51.3333 11.4914 51.3333 25.6667C51.3333 39.842 39.842 51.3333 25.6667 51.3333ZM3.5 25.6667C3.5 20.1755 5.49668 15.1506 8.80363 11.2786L16.2724 18.7473C14.8442 20.6832 14 23.0764 14 25.6667C14 28.257 14.8442 30.6502 16.2725 32.586L8.80368 40.0548C5.4967 36.1828 3.5 31.1579 3.5 25.6667ZM18.7473 35.0609L11.2786 42.5297C15.1506 45.8367 20.1755 47.8333 25.6667 47.8333C31.1562 47.8333 36.1797 45.8378 40.0513 42.5326L32.5823 35.0636C30.6471 36.4902 28.2553 37.3333 25.6667 37.3333C23.0764 37.3333 20.6832 36.4892 18.7473 35.0609ZM35.0582 32.5897L42.5267 40.0583C45.8354 36.1857 47.8333 31.1595 47.8333 25.6667C47.8333 20.1738 45.8355 15.1477 42.5268 11.2751L35.0582 18.7437C36.4881 20.6802 37.3333 23.0747 37.3333 25.6667C37.3333 28.2586 36.4881 30.6532 35.0582 32.5897ZM32.5824 16.2698L40.0514 8.80073C36.1798 5.49552 31.1563 3.5 25.6667 3.5C20.1754 3.5 15.1506 5.4967 11.2785 8.80368L18.7473 16.2725C20.6832 14.8442 23.0763 14 25.6667 14C28.2554 14 30.6471 14.8431 32.5824 16.2698ZM33.8333 25.6667C33.8333 30.177 30.177 33.8333 25.6667 33.8333C21.1563 33.8333 17.5 30.177 17.5 25.6667C17.5 21.1563 21.1563 17.5 25.6667 17.5C30.177 17.5 33.8333 21.1563 33.8333 25.6667Z" fill="white"/>
</svg>
