<svg width="52" height="52" viewBox="0 0 52 52" fill="none" xmlns="http://www.w3.org/2000/svg">
<path fill-rule="evenodd" clip-rule="evenodd" d="M23.7044 1.19641C25.2992 -0.398803 27.8822 -0.398803 29.477 1.19641L33.6054 5.32589C35.2002 6.92111 35.2002 9.50471 33.6054 11.0999L14.9659 29.7314C12.843 31.8553 12.7643 34.6448 14.7181 36.6328C15.7568 37.6903 16.9366 38.1075 18.0726 38.0614C19.2297 38.0143 20.485 37.4783 21.5967 36.3662L40.2362 17.7348C41.8311 16.1401 44.4142 16.1397 46.0088 17.7348L50.1372 21.8643C51.732 23.4595 51.732 26.0431 50.1372 27.6383L31.5396 46.2279C24.4116 53.357 12.5318 52.8349 5.51544 45.8168C-1.5011 38.7984 -2.02346 26.9157 5.1044 19.786L23.7044 1.19641ZM27.0108 3.66323C26.778 3.43041 26.4034 3.43041 26.1706 3.66323L21.6175 8.21296L26.5865 13.1832L31.1392 8.6331C31.372 8.40028 31.372 8.02554 31.1392 7.79272L27.0108 3.66323ZM24.1192 15.649L19.15 10.6786L7.5706 22.2528C1.91477 27.9101 2.21449 37.5813 7.98163 43.3499C13.7488 49.1186 23.4175 49.4184 29.0734 43.7611L40.6522 32.1862L35.6836 27.2164L24.0629 38.8331C22.4194 40.4767 20.3628 41.4598 18.2143 41.5471C16.0447 41.6353 13.9243 40.8023 12.231 39.0785C8.78597 35.5732 9.17757 30.5875 12.4997 27.2646L24.1192 15.649ZM38.1508 24.7506L43.1194 29.7204L47.671 25.1715C47.9035 24.9386 47.9037 24.5638 47.671 24.3311L43.5426 20.2016C43.3098 19.9688 42.9352 19.9688 42.7024 20.2016L38.1508 24.7506Z" fill="white"/>
</svg>
